<svg xmlns="http://www.w3.org/2000/svg" xmlns:xlink="http://www.w3.org/1999/xlink" width="1024" zoomAndPan="magnify" viewBox="0 0 768 767.999994" height="1024" preserveAspectRatio="xMidYMid meet" version="1.0"><defs><clipPath id="e2f66d35aa"><path d="M 31.011719 426 L 237 426 L 237 633 L 31.011719 633 Z M 31.011719 426 " clip-rule="nonzero"/></clipPath><clipPath id="febe826f33"><path d="M 529 34 L 735.261719 34 L 735.261719 234 L 529 234 Z M 529 34 " clip-rule="nonzero"/></clipPath></defs><path fill="#10213e" d="M 487.230469 734.851562 L 309.730469 734.851562 C 301.632812 734.851562 295.058594 728.277344 295.058594 720.179688 C 295.058594 679.75 327.976562 646.832031 368.40625 646.832031 L 391.671875 646.832031 L 279.511719 534.671875 C 270.855469 526.015625 266.074219 514.515625 266.074219 502.28125 C 266.074219 490.046875 270.855469 478.546875 279.511719 469.890625 C 296.792969 452.640625 326.953125 452.582031 344.261719 469.890625 L 370.550781 496.179688 C 372.777344 491.160156 375.917969 486.46875 380.027344 482.390625 C 390.207031 472.207031 404.789062 467.425781 418.8125 469.421875 C 420.484375 460.738281 424.648438 452.433594 431.367188 445.714844 C 444.191406 432.894531 462.730469 429.257812 478.808594 434.859375 C 480.953125 428.113281 484.707031 421.746094 490.046875 416.375 C 507.882812 398.539062 536.960938 398.539062 554.796875 416.375 L 600.273438 461.851562 C 630.492188 492.101562 647.125 532.234375 647.125 574.953125 C 647.125 663.117188 575.394531 734.851562 487.230469 734.851562 Z M 326.894531 705.511719 L 487.230469 705.511719 C 559.226562 705.511719 617.789062 646.949219 617.789062 574.953125 C 617.789062 540.097656 604.203125 507.296875 579.558594 482.652344 L 534.082031 437.175781 C 527.660156 430.753906 517.242188 430.753906 510.816406 437.175781 C 504.394531 443.601562 504.394531 454.019531 510.816406 460.445312 C 513.695312 463.320312 515.101562 467.074219 515.101562 470.828125 C 515.101562 474.585938 513.664062 478.339844 510.816406 481.214844 C 505.097656 486.9375 495.796875 486.9375 490.074219 481.214844 L 475.40625 466.546875 C 468.980469 460.121094 458.566406 460.121094 452.140625 466.546875 C 449.03125 469.65625 447.328125 473.792969 447.328125 478.164062 C 447.328125 482.535156 449.03125 486.703125 452.140625 489.78125 L 466.808594 504.453125 C 469.65625 507.296875 471.09375 511.054688 471.09375 514.808594 C 471.09375 518.5625 469.65625 522.320312 466.808594 525.195312 C 461.089844 530.914062 451.789062 530.914062 446.066406 525.195312 L 424.0625 503.191406 C 417.84375 496.96875 407.015625 496.96875 400.796875 503.191406 C 397.6875 506.300781 395.984375 510.4375 395.984375 514.808594 C 395.984375 519.179688 397.6875 523.347656 400.796875 526.425781 L 437.472656 563.101562 C 440.316406 565.976562 441.753906 569.730469 441.753906 573.484375 C 441.753906 577.242188 440.316406 580.996094 437.472656 583.871094 C 431.75 589.59375 422.449219 589.59375 416.726562 583.871094 L 323.519531 490.664062 C 317.300781 484.441406 306.472656 484.472656 300.253906 490.664062 C 297.144531 493.773438 295.414062 497.910156 295.414062 502.28125 C 295.414062 506.652344 297.144531 510.816406 300.253906 513.898438 L 437.441406 651.085938 C 441.636719 655.28125 442.898438 661.589844 440.609375 667.078125 C 438.351562 672.5625 432.980469 676.144531 427.054688 676.144531 L 368.378906 676.144531 C 349.277344 676.171875 332.964844 688.4375 326.894531 705.511719 Z M 326.894531 705.511719 " fill-opacity="1" fill-rule="nonzero"/><g clip-path="url(#e2f66d35aa)"><path fill="#10213e" d="M 133.695312 632.164062 C 77.074219 632.164062 31.011719 586.101562 31.011719 529.476562 C 31.011719 472.855469 77.074219 426.792969 133.695312 426.792969 C 190.320312 426.792969 236.382812 472.855469 236.382812 529.476562 C 236.382812 586.101562 190.320312 632.164062 133.695312 632.164062 Z M 133.695312 456.128906 C 93.265625 456.128906 60.347656 489.046875 60.347656 529.476562 C 60.347656 569.90625 93.265625 602.824219 133.695312 602.824219 C 174.125 602.824219 207.042969 569.90625 207.042969 529.476562 C 207.042969 489.046875 174.125 456.128906 133.695312 456.128906 Z M 133.695312 456.128906 " fill-opacity="1" fill-rule="nonzero"/></g><g clip-path="url(#febe826f33)"><path fill="#10213e" d="M 653.199219 233.625 C 646.597656 233.625 640.582031 229.136719 638.96875 222.417969 C 637.0625 214.523438 641.902344 206.605469 649.765625 204.695312 C 657.71875 202.761719 665.257812 199.53125 672.125 195.101562 C 678.960938 190.761719 688.023438 192.667969 692.394531 199.503906 C 696.769531 206.308594 694.832031 215.40625 687.996094 219.777344 C 678.371094 225.96875 667.839844 230.484375 656.691406 233.214844 C 655.515625 233.507812 654.34375 233.625 653.199219 233.625 Z M 595.84375 228.136719 C 593.816406 228.136719 591.734375 227.699219 589.738281 226.816406 C 579.355469 222.066406 569.847656 215.640625 561.546875 207.6875 C 555.675781 202.113281 555.472656 192.8125 561.074219 186.945312 C 566.679688 181.078125 575.980469 180.84375 581.816406 186.476562 C 587.746094 192.140625 594.523438 196.746094 601.972656 200.121094 C 609.339844 203.492188 612.566406 212.179688 609.222656 219.570312 C 606.757812 224.96875 601.417969 228.136719 595.84375 228.136719 Z M 715.664062 176.855469 C 714.078125 176.855469 712.464844 176.589844 710.851562 176.0625 C 703.191406 173.421875 699.144531 165.058594 701.785156 157.402344 C 704.453125 149.714844 705.804688 141.617188 705.804688 133.402344 C 705.804688 126.363281 704.835938 119.410156 702.871094 112.75 C 700.582031 104.972656 705.042969 96.847656 712.816406 94.527344 C 720.679688 92.328125 728.746094 96.730469 731.035156 104.476562 C 733.765625 113.863281 735.144531 123.605469 735.144531 133.433594 C 735.144531 144.933594 733.265625 156.230469 729.539062 166.996094 C 727.425781 173.039062 721.734375 176.855469 715.664062 176.855469 Z M 545.292969 160.570312 C 538.101562 160.570312 531.855469 155.289062 530.769531 147.984375 C 530.09375 143.203125 529.769531 138.332031 529.769531 133.34375 C 529.769531 126.714844 530.386719 120.230469 531.621094 113.921875 C 533.144531 106 540.773438 100.808594 548.8125 102.304688 C 556.761719 103.828125 561.957031 111.515625 560.429688 119.496094 C 559.578125 124.015625 559.109375 128.648438 559.109375 133.402344 C 559.109375 136.980469 559.34375 140.445312 559.84375 143.816406 C 560.988281 151.828125 555.441406 159.28125 547.402344 160.425781 C 546.699219 160.511719 545.996094 160.570312 545.292969 160.570312 Z M 574.835938 81.53125 C 570.726562 81.53125 566.648438 79.800781 563.746094 76.457031 C 558.433594 70.355469 559.109375 61.082031 565.210938 55.800781 C 573.867188 48.289062 583.667969 42.335938 594.257812 38.082031 C 601.769531 35.058594 610.304688 38.726562 613.328125 46.207031 C 616.351562 53.71875 612.710938 62.285156 605.203125 65.277344 C 597.601562 68.328125 590.621094 72.613281 584.398438 77.980469 C 581.671875 80.359375 578.238281 81.53125 574.835938 81.53125 Z M 683.507812 76.367188 C 680.542969 76.367188 677.582031 75.488281 675 73.640625 C 668.339844 68.886719 660.972656 65.308594 653.140625 63.019531 C 645.367188 60.730469 640.90625 52.605469 643.195312 44.800781 C 645.484375 37.023438 653.667969 32.59375 661.414062 34.855469 C 672.417969 38.082031 682.742188 43.097656 692.074219 49.789062 C 698.675781 54.511719 700.199219 63.664062 695.476562 70.238281 C 692.574219 74.226562 688.082031 76.367188 683.507812 76.367188 Z M 683.507812 76.367188 " fill-opacity="1" fill-rule="nonzero"/></g><path fill="#10213e" d="M 177.703125 456.128906 C 176.558594 456.128906 175.417969 456.011719 174.242188 455.71875 C 166.351562 453.84375 161.507812 445.921875 163.417969 438.027344 C 165.707031 428.550781 169.722656 418.285156 175.359375 407.457031 C 179.113281 400.269531 187.972656 397.480469 195.160156 401.238281 C 202.347656 404.992188 205.105469 413.851562 201.382812 421.042969 C 196.832031 429.726562 193.664062 437.765625 191.933594 444.894531 C 190.351562 451.613281 184.335938 456.128906 177.703125 456.128906 Z M 221.507812 380.496094 C 218.25 380.496094 214.9375 379.410156 212.238281 377.179688 C 205.957031 372.046875 205.046875 362.804688 210.183594 356.523438 C 216.34375 349.015625 223.003906 341.386719 230.074219 333.730469 C 235.589844 327.773438 244.832031 327.421875 250.816406 332.90625 C 256.773438 338.421875 257.125 347.695312 251.636719 353.648438 C 244.949219 360.867188 238.699219 368.027344 232.890625 375.125 C 229.957031 378.648438 225.761719 380.496094 221.507812 380.496094 Z M 282.503906 316.945312 C 278.542969 316.945312 274.582031 315.363281 271.707031 312.195312 C 266.21875 306.238281 266.628906 296.9375 272.585938 291.453125 C 279.863281 284.761719 287.316406 278.132812 294.941406 271.617188 C 301.105469 266.394531 310.34375 267.042969 315.625 273.230469 C 320.90625 279.363281 320.175781 288.636719 314.011719 293.917969 C 306.679688 300.253906 299.433594 306.648438 292.449219 313.105469 C 289.601562 315.683594 286.054688 316.945312 282.503906 316.945312 Z M 350.304688 260.617188 C 345.875 260.617188 341.472656 258.621094 338.597656 254.777344 C 333.699219 248.324219 334.992188 239.109375 341.472656 234.242188 C 349.453125 228.195312 357.492188 222.328125 365.5625 216.609375 C 372.191406 211.914062 381.316406 213.5 386.011719 220.128906 C 390.703125 226.730469 389.121094 235.882812 382.488281 240.578125 C 374.6875 246.09375 366.882812 251.785156 359.136719 257.652344 C 356.496094 259.648438 353.386719 260.617188 350.304688 260.617188 Z M 423.125 211.035156 C 418.167969 211.035156 413.324219 208.511719 410.566406 203.964844 C 406.371094 197.039062 408.601562 188.03125 415.527344 183.808594 C 424.355469 178.4375 433.070312 173.421875 441.609375 168.816406 C 448.738281 164.941406 457.625 167.613281 461.5 174.710938 C 465.371094 181.839844 462.730469 190.730469 455.601562 194.605469 C 447.476562 199.003906 439.171875 203.785156 430.722656 208.890625 C 428.316406 210.328125 425.707031 211.035156 423.125 211.035156 Z M 501.898438 171.808594 C 495.882812 171.808594 490.25 168.082031 488.082031 162.097656 C 485.351562 154.46875 489.3125 146.078125 496.941406 143.320312 C 508.148438 139.300781 518.503906 136.484375 527.71875 134.898438 C 535.699219 133.636719 543.265625 138.917969 544.644531 146.929688 C 545.996094 154.910156 540.625 162.476562 532.617188 163.855469 C 525.105469 165.117188 516.421875 167.523438 506.859375 170.957031 C 505.214844 171.542969 503.542969 171.808594 501.898438 171.808594 Z M 501.898438 171.808594 " fill-opacity="1" fill-rule="nonzero"/></svg>