<svg xmlns="http://www.w3.org/2000/svg" xmlns:xlink="http://www.w3.org/1999/xlink" width="1024" zoomAndPan="magnify" viewBox="0 0 768 767.999994" height="1024" preserveAspectRatio="xMidYMid meet" version="1.0"><defs><clipPath id="c868a5ffbb"><path d="M 82 78 L 721 78 L 721 659.550781 L 82 659.550781 Z M 82 78 " clip-rule="nonzero"/></clipPath></defs><g clip-path="url(#c868a5ffbb)"><path fill="#10213e" d="M 390.714844 82.578125 L 87.894531 355.140625 C 76.800781 365.070312 83.859375 383.378906 98.679688 383.378906 L 159.972656 383.378906 L 159.972656 643.296875 C 159.976562 643.824219 160.003906 644.355469 160.058594 644.882812 C 160.113281 645.410156 160.191406 645.933594 160.296875 646.453125 C 160.402344 646.972656 160.53125 647.488281 160.6875 647.992188 C 160.84375 648.5 161.023438 649 161.226562 649.488281 C 161.433594 649.976562 161.660156 650.457031 161.910156 650.925781 C 162.160156 651.390625 162.433594 651.84375 162.730469 652.285156 C 163.023438 652.726562 163.339844 653.152344 163.675781 653.5625 C 164.015625 653.972656 164.371094 654.363281 164.746094 654.738281 C 165.121094 655.113281 165.511719 655.46875 165.921875 655.804688 C 166.332031 656.144531 166.757812 656.460938 167.199219 656.753906 C 167.636719 657.050781 168.09375 657.324219 168.558594 657.574219 C 169.027344 657.824219 169.503906 658.050781 169.996094 658.257812 C 170.484375 658.460938 170.984375 658.640625 171.488281 658.796875 C 171.996094 658.949219 172.511719 659.082031 173.03125 659.1875 C 173.550781 659.292969 174.074219 659.371094 174.601562 659.425781 C 175.128906 659.480469 175.65625 659.507812 176.1875 659.511719 L 331.75 659.511719 C 332.28125 659.511719 332.808594 659.484375 333.339844 659.433594 C 333.867188 659.378906 334.390625 659.304688 334.914062 659.199219 C 335.433594 659.09375 335.949219 658.964844 336.457031 658.8125 C 336.964844 658.660156 337.464844 658.480469 337.953125 658.277344 C 338.445312 658.074219 338.925781 657.847656 339.394531 657.597656 C 339.863281 657.34375 340.316406 657.074219 340.757812 656.777344 C 341.199219 656.484375 341.625 656.167969 342.035156 655.828125 C 342.445312 655.492188 342.839844 655.136719 343.214844 654.761719 C 343.589844 654.386719 343.945312 653.992188 344.285156 653.582031 C 344.621094 653.171875 344.9375 652.746094 345.230469 652.304688 C 345.527344 651.863281 345.800781 651.40625 346.050781 650.9375 C 346.300781 650.472656 346.527344 649.992188 346.730469 649.5 C 346.933594 649.011719 347.113281 648.511719 347.265625 648.003906 C 347.421875 647.496094 347.550781 646.980469 347.652344 646.457031 C 347.757812 645.9375 347.835938 645.414062 347.886719 644.882812 C 347.9375 644.355469 347.964844 643.828125 347.964844 643.296875 L 347.964844 452.433594 L 455.113281 452.433594 L 455.113281 643.296875 C 455.113281 643.824219 455.144531 644.355469 455.195312 644.882812 C 455.25 645.410156 455.332031 645.933594 455.4375 646.453125 C 455.542969 646.972656 455.671875 647.488281 455.828125 647.992188 C 455.984375 648.5 456.164062 649 456.367188 649.488281 C 456.570312 649.976562 456.796875 650.457031 457.050781 650.925781 C 457.300781 651.390625 457.574219 651.84375 457.867188 652.285156 C 458.164062 652.726562 458.480469 653.152344 458.816406 653.5625 C 459.152344 653.972656 459.507812 654.363281 459.882812 654.738281 C 460.257812 655.113281 460.652344 655.46875 461.0625 655.804688 C 461.472656 656.144531 461.894531 656.460938 462.335938 656.753906 C 462.777344 657.050781 463.230469 657.324219 463.699219 657.574219 C 464.164062 657.824219 464.644531 658.050781 465.132812 658.257812 C 465.625 658.460938 466.121094 658.640625 466.628906 658.796875 C 467.136719 658.949219 467.648438 659.082031 468.167969 659.1875 C 468.6875 659.292969 469.210938 659.371094 469.742188 659.425781 C 470.269531 659.480469 470.796875 659.507812 471.328125 659.511719 L 626.964844 659.511719 C 627.496094 659.507812 628.023438 659.480469 628.554688 659.425781 C 629.082031 659.371094 629.605469 659.292969 630.125 659.1875 C 630.644531 659.082031 631.15625 658.949219 631.664062 658.796875 C 632.171875 658.640625 632.667969 658.460938 633.160156 658.257812 C 633.648438 658.050781 634.128906 657.824219 634.59375 657.574219 C 635.0625 657.324219 635.515625 657.050781 635.957031 656.753906 C 636.398438 656.460938 636.824219 656.144531 637.230469 655.808594 C 637.640625 655.46875 638.035156 655.113281 638.410156 654.738281 C 638.785156 654.363281 639.140625 653.972656 639.476562 653.5625 C 639.8125 653.152344 640.128906 652.726562 640.425781 652.285156 C 640.71875 651.84375 640.992188 651.390625 641.242188 650.925781 C 641.496094 650.457031 641.722656 649.976562 641.925781 649.488281 C 642.128906 649 642.308594 648.5 642.464844 647.992188 C 642.621094 647.488281 642.75 646.972656 642.855469 646.453125 C 642.960938 645.933594 643.042969 645.410156 643.097656 644.882812 C 643.152344 644.355469 643.179688 643.824219 643.179688 643.296875 L 643.179688 383.378906 L 704.398438 383.378906 C 719.292969 383.378906 726.277344 365.070312 715.257812 355.140625 L 412.4375 82.578125 C 411.703125 81.90625 410.910156 81.308594 410.0625 80.785156 C 409.21875 80.261719 408.328125 79.820312 407.402344 79.460938 C 406.472656 79.101562 405.519531 78.832031 404.539062 78.648438 C 403.558594 78.464844 402.574219 78.375 401.578125 78.375 C 400.582031 78.375 399.59375 78.464844 398.613281 78.648438 C 397.636719 78.832031 396.683594 79.101562 395.753906 79.460938 C 394.824219 79.820312 393.9375 80.261719 393.089844 80.785156 C 392.242188 81.308594 391.453125 81.90625 390.714844 82.578125 Z M 390.714844 82.578125 " fill-opacity="1" fill-rule="nonzero"/></g></svg>