<svg xmlns="http://www.w3.org/2000/svg" xmlns:xlink="http://www.w3.org/1999/xlink" width="1024" zoomAndPan="magnify" viewBox="0 0 768 767.999994" height="1024" preserveAspectRatio="xMidYMid meet" version="1.0"><defs><clipPath id="6eb481f407"><path d="M 35.382812 110.335938 L 130 110.335938 L 130 205 L 35.382812 205 Z M 35.382812 110.335938 " clip-rule="nonzero"/></clipPath><clipPath id="327d9ba489"><path d="M 35.382812 218 L 130 218 L 130 313 L 35.382812 313 Z M 35.382812 218 " clip-rule="nonzero"/></clipPath><clipPath id="c655838dfa"><path d="M 35.382812 325 L 130 325 L 130 421 L 35.382812 421 Z M 35.382812 325 " clip-rule="nonzero"/></clipPath><clipPath id="ba5e2fa58b"><path d="M 35.382812 433 L 130 433 L 130 529 L 35.382812 529 Z M 35.382812 433 " clip-rule="nonzero"/></clipPath><clipPath id="391fcfb99b"><path d="M 35.382812 541 L 130 541 L 130 636 L 35.382812 636 Z M 35.382812 541 " clip-rule="nonzero"/></clipPath></defs><path fill="#10213e" d="M 704.53125 157.882812 C 704.441406 168.542969 700.105469 178.175781 693.097656 185.183594 C 686.019531 192.238281 676.273438 196.621094 665.5 196.621094 L 151.292969 196.621094 C 144.5625 196.621094 139.105469 191.167969 139.105469 184.433594 L 139.105469 130.742188 C 139.105469 124.007812 144.5625 118.554688 151.292969 118.554688 L 665.132812 118.554688 C 686.773438 118.554688 704.691406 136.242188 704.53125 157.882812 Z M 704.53125 157.882812 " fill-opacity="1" fill-rule="nonzero"/><g clip-path="url(#6eb481f407)"><path fill="#10213e" d="M 129.972656 128.367188 L 129.972656 186.804688 C 129.972656 196.757812 121.894531 204.839844 111.941406 204.839844 L 53.503906 204.839844 C 43.550781 204.839844 35.46875 196.757812 35.46875 186.804688 L 35.46875 128.367188 C 35.46875 118.414062 43.550781 110.335938 53.503906 110.335938 L 111.941406 110.335938 C 121.894531 110.335938 129.972656 118.414062 129.972656 128.367188 Z M 129.972656 128.367188 " fill-opacity="1" fill-rule="nonzero"/></g><path fill="#ffffff" d="M 123.355469 132.453125 L 123.355469 182.695312 C 123.355469 191.257812 116.414062 198.195312 107.855469 198.195312 L 57.589844 198.195312 C 49.03125 198.21875 42.089844 191.28125 42.089844 182.71875 L 42.089844 132.453125 C 42.089844 123.894531 49.03125 116.953125 57.589844 116.953125 L 107.832031 116.953125 C 116.414062 116.953125 123.355469 123.894531 123.355469 132.453125 Z M 123.355469 132.453125 " fill-opacity="1" fill-rule="nonzero"/><path fill="#10213e" d="M 704.53125 265.628906 C 704.441406 276.289062 700.105469 285.921875 693.097656 292.929688 C 686.019531 299.984375 676.273438 304.367188 665.5 304.367188 L 151.292969 304.367188 C 144.5625 304.367188 139.105469 298.910156 139.105469 292.175781 L 139.105469 238.488281 C 139.105469 231.753906 144.5625 226.296875 151.292969 226.296875 L 665.132812 226.296875 C 686.773438 226.296875 704.691406 243.988281 704.53125 265.628906 Z M 704.53125 265.628906 " fill-opacity="1" fill-rule="nonzero"/><g clip-path="url(#327d9ba489)"><path fill="#10213e" d="M 129.972656 236.113281 L 129.972656 294.550781 C 129.972656 304.503906 121.894531 312.582031 111.941406 312.582031 L 53.503906 312.582031 C 43.550781 312.582031 35.46875 304.503906 35.46875 294.550781 L 35.46875 236.113281 C 35.46875 226.160156 43.550781 218.078125 53.503906 218.078125 L 111.941406 218.078125 C 121.894531 218.078125 129.972656 226.160156 129.972656 236.113281 Z M 129.972656 236.113281 " fill-opacity="1" fill-rule="nonzero"/></g><path fill="#ffffff" d="M 123.355469 240.199219 L 123.355469 290.441406 C 123.355469 299 116.414062 305.941406 107.855469 305.941406 L 57.589844 305.941406 C 49.03125 305.964844 42.089844 299.023438 42.089844 290.464844 L 42.089844 240.199219 C 42.089844 231.636719 49.03125 224.699219 57.589844 224.699219 L 107.832031 224.699219 C 116.414062 224.699219 123.355469 231.636719 123.355469 240.199219 Z M 123.355469 240.199219 " fill-opacity="1" fill-rule="nonzero"/><path fill="#10213e" d="M 704.53125 373.371094 C 704.441406 384.03125 700.105469 393.664062 693.097656 400.671875 C 686.019531 407.726562 676.273438 412.109375 665.5 412.109375 L 151.292969 412.109375 C 144.5625 412.109375 139.105469 406.652344 139.105469 399.921875 L 139.105469 346.253906 C 139.105469 339.519531 144.5625 334.0625 151.292969 334.0625 L 665.132812 334.0625 C 686.773438 334.042969 704.691406 351.730469 704.53125 373.371094 Z M 704.53125 373.371094 " fill-opacity="1" fill-rule="nonzero"/><g clip-path="url(#c655838dfa)"><path fill="#10213e" d="M 129.972656 343.855469 L 129.972656 402.292969 C 129.972656 412.246094 121.894531 420.328125 111.941406 420.328125 L 53.503906 420.328125 C 43.550781 420.328125 35.46875 412.246094 35.46875 402.292969 L 35.46875 343.855469 C 35.46875 333.902344 43.550781 325.824219 53.503906 325.824219 L 111.941406 325.824219 C 121.894531 325.824219 129.972656 333.902344 129.972656 343.855469 Z M 129.972656 343.855469 " fill-opacity="1" fill-rule="nonzero"/></g><path fill="#ffffff" d="M 123.355469 347.941406 L 123.355469 398.183594 C 123.355469 406.746094 116.414062 413.683594 107.855469 413.683594 L 57.589844 413.683594 C 49.03125 413.683594 42.089844 406.746094 42.089844 398.183594 L 42.089844 347.941406 C 42.089844 339.382812 49.03125 332.441406 57.589844 332.441406 L 107.832031 332.441406 C 116.414062 332.441406 123.355469 339.382812 123.355469 347.941406 Z M 123.355469 347.941406 " fill-opacity="1" fill-rule="nonzero"/><path fill="#10213e" d="M 704.53125 481.117188 C 704.441406 491.777344 700.105469 501.410156 693.097656 508.417969 C 686.019531 515.472656 676.273438 519.855469 665.5 519.855469 L 151.292969 519.855469 C 144.5625 519.855469 139.105469 514.398438 139.105469 507.664062 L 139.105469 453.996094 C 139.105469 447.261719 144.5625 441.808594 151.292969 441.808594 L 665.132812 441.808594 C 686.773438 441.785156 704.691406 459.476562 704.53125 481.117188 Z M 704.53125 481.117188 " fill-opacity="1" fill-rule="nonzero"/><g clip-path="url(#ba5e2fa58b)"><path fill="#10213e" d="M 129.972656 451.601562 L 129.972656 510.039062 C 129.972656 519.992188 121.894531 528.070312 111.941406 528.070312 L 53.503906 528.070312 C 43.550781 528.070312 35.46875 519.992188 35.46875 510.039062 L 35.46875 451.601562 C 35.46875 441.648438 43.550781 433.566406 53.503906 433.566406 L 111.941406 433.566406 C 121.894531 433.566406 129.972656 441.648438 129.972656 451.601562 Z M 129.972656 451.601562 " fill-opacity="1" fill-rule="nonzero"/></g><path fill="#ffffff" d="M 123.355469 455.6875 L 123.355469 505.929688 C 123.355469 514.488281 116.414062 521.429688 107.855469 521.429688 L 57.589844 521.429688 C 49.03125 521.429688 42.089844 514.488281 42.089844 505.929688 L 42.089844 455.6875 C 42.089844 447.125 49.03125 440.1875 57.589844 440.1875 L 107.832031 440.1875 C 116.414062 440.1875 123.355469 447.125 123.355469 455.6875 Z M 123.355469 455.6875 " fill-opacity="1" fill-rule="nonzero"/><path fill="#10213e" d="M 704.53125 588.859375 C 704.441406 599.519531 700.105469 609.152344 693.097656 616.160156 C 686.019531 623.214844 676.273438 627.597656 665.5 627.597656 L 151.292969 627.597656 C 144.5625 627.597656 139.105469 622.140625 139.105469 615.410156 L 139.105469 561.742188 C 139.105469 555.007812 144.5625 549.550781 151.292969 549.550781 L 665.132812 549.550781 C 686.773438 549.527344 704.691406 567.21875 704.53125 588.859375 Z M 704.53125 588.859375 " fill-opacity="1" fill-rule="nonzero"/><g clip-path="url(#391fcfb99b)"><path fill="#10213e" d="M 129.972656 559.34375 L 129.972656 617.78125 C 129.972656 627.734375 121.894531 635.816406 111.941406 635.816406 L 53.503906 635.816406 C 43.550781 635.816406 35.46875 627.734375 35.46875 617.78125 L 35.46875 559.34375 C 35.46875 549.390625 43.550781 541.3125 53.503906 541.3125 L 111.941406 541.3125 C 121.894531 541.3125 129.972656 549.390625 129.972656 559.34375 Z M 129.972656 559.34375 " fill-opacity="1" fill-rule="nonzero"/></g><path fill="#ffffff" d="M 123.355469 563.429688 L 123.355469 613.671875 C 123.355469 622.234375 116.414062 629.171875 107.855469 629.171875 L 57.589844 629.171875 C 49.03125 629.171875 42.089844 622.234375 42.089844 613.671875 L 42.089844 563.429688 C 42.089844 554.871094 49.03125 547.929688 57.589844 547.929688 L 107.832031 547.929688 C 116.414062 547.929688 123.355469 554.871094 123.355469 563.429688 Z M 123.355469 563.429688 " fill-opacity="1" fill-rule="nonzero"/></svg>