<svg xmlns="http://www.w3.org/2000/svg" xmlns:xlink="http://www.w3.org/1999/xlink" width="1024" zoomAndPan="magnify" viewBox="0 0 768 767.999994" height="1024" preserveAspectRatio="xMidYMid meet" version="1.0"><defs><clipPath id="359ffb5c6e"><path d="M 138.625 77 L 671 77 L 671 743 L 138.625 743 Z M 138.625 77 " clip-rule="nonzero"/></clipPath></defs><g clip-path="url(#359ffb5c6e)"><path fill="#10213e" d="M 574.550781 560.300781 L 557.019531 570.910156 L 557.019531 552 C 563.246094 554.304688 569.011719 557.074219 574.550781 560.53125 Z M 458.761719 77.09375 L 138.625 77.09375 L 138.625 536.082031 L 203.898438 536.082031 L 203.898438 134.988281 C 203.898438 130.375 207.585938 126.683594 212.199219 126.683594 L 458.761719 126.683594 Z M 477.445312 601.585938 C 485.289062 575.984375 515.503906 561.222656 540.414062 571.140625 L 540.414062 547.617188 C 507.429688 541.386719 472.140625 553.84375 449.539062 578.292969 C 443.078125 585.441406 437.773438 593.515625 433.390625 602.050781 L 476.984375 602.050781 C 476.984375 601.816406 476.984375 601.585938 477.214844 601.355469 Z M 379.652344 568.375 C 373.886719 578.984375 369.503906 590.515625 366.042969 602.28125 L 220.273438 602.28125 L 220.273438 143.289062 L 540.414062 143.289062 L 540.414062 483.726562 C 521.5 481.652344 502.355469 483.035156 484.136719 487.878906 C 484.136719 487.878906 378.035156 487.878906 378.035156 487.878906 C 367.195312 487.878906 367.195312 504.253906 378.035156 504.484375 L 442.617188 504.484375 C 432.238281 510.480469 422.320312 517.632812 413.554688 525.933594 L 378.265625 525.933594 C 367.425781 525.933594 367.425781 542.3125 378.265625 542.542969 C 378.265625 542.542969 397.871094 542.542969 397.871094 542.542969 C 391.183594 550.613281 385.1875 559.609375 380.113281 568.835938 Z M 381.265625 219.171875 L 504.203125 219.171875 C 508.8125 219.171875 512.503906 215.484375 512.503906 210.871094 C 512.503906 206.257812 508.8125 202.566406 504.203125 202.566406 L 381.265625 202.566406 C 370.425781 202.566406 370.425781 218.941406 381.265625 219.171875 Z M 381.265625 257.230469 L 504.203125 257.230469 C 508.8125 257.230469 512.503906 253.539062 512.503906 248.925781 C 512.503906 244.3125 508.8125 240.625 504.203125 240.625 L 381.265625 240.625 C 370.425781 240.625 370.425781 257 381.265625 257.230469 Z M 378.035156 359.175781 L 500.972656 359.175781 C 505.585938 359.175781 509.277344 355.484375 509.277344 350.875 C 509.277344 346.261719 505.585938 342.570312 500.972656 342.570312 L 378.035156 342.570312 C 367.195312 342.570312 367.195312 358.945312 378.035156 359.175781 Z M 378.035156 397.234375 L 500.972656 397.234375 C 505.585938 397.234375 509.277344 393.542969 509.277344 388.929688 C 509.277344 384.316406 505.585938 380.625 500.972656 380.625 L 378.035156 380.625 C 367.195312 380.625 367.195312 397.003906 378.035156 397.234375 Z M 345.976562 493.183594 C 345.976562 479.804688 334.90625 468.734375 321.527344 468.734375 L 278.398438 468.734375 C 265.019531 468.734375 253.949219 479.804688 253.949219 493.183594 L 253.949219 536.3125 C 253.949219 549.691406 265.019531 560.761719 278.398438 560.761719 L 321.527344 560.761719 C 334.90625 560.761719 345.976562 549.691406 345.976562 536.3125 Z M 345.976562 350.875 C 345.976562 337.496094 334.90625 326.425781 321.527344 326.425781 L 278.398438 326.425781 C 265.019531 326.425781 253.949219 337.496094 253.949219 350.875 L 253.949219 394.003906 C 253.949219 407.382812 265.019531 418.453125 278.398438 418.453125 L 321.527344 418.453125 C 334.90625 418.453125 345.976562 407.382812 345.976562 394.003906 Z M 345.976562 208.332031 C 345.976562 194.953125 334.90625 183.882812 321.527344 183.882812 L 278.398438 183.882812 C 265.019531 183.882812 253.949219 194.953125 253.949219 208.332031 L 253.949219 251.464844 C 253.949219 264.839844 265.019531 275.914062 278.398438 275.914062 L 321.527344 275.914062 C 334.90625 275.914062 345.976562 264.839844 345.976562 251.464844 Z M 443.308594 561.453125 C 462.914062 543.234375 488.285156 531.703125 515.042969 529.855469 L 515.042969 499.640625 C 479.753906 501.71875 446.308594 516.476562 420.9375 541.15625 C 428.316406 547.847656 435.699219 554.765625 443.308594 561.453125 Z M 531.417969 529.855469 C 552.636719 531.46875 573.164062 538.390625 590.234375 551.074219 C 599.457031 545.539062 608.683594 540.003906 618.140625 534.46875 C 593.921875 513.480469 563.246094 501.484375 531.417969 499.640625 Z M 669.34375 637.570312 C 667.960938 613.351562 660.8125 590.054688 648.125 569.527344 L 629.675781 599.050781 C 635.210938 611.273438 638.4375 624.421875 639.359375 637.800781 L 669.574219 637.800781 Z M 380.574219 612.429688 C 378.5 620.730469 377.34375 629.035156 376.882812 637.570312 L 407.097656 637.570312 C 408.480469 614.503906 417.476562 591.898438 431.777344 573.679688 C 424.398438 566.992188 417.015625 560.070312 409.636719 553.382812 C 395.566406 570.679688 385.417969 590.976562 380.574219 612.660156 Z M 548.023438 664.09375 L 498.203125 664.09375 C 483.441406 664.09375 471.21875 676.085938 471.21875 691.078125 L 471.21875 734.902344 C 471.21875 739.285156 474.910156 742.976562 479.292969 742.976562 L 566.707031 742.976562 C 571.089844 742.976562 574.78125 739.285156 574.78125 734.902344 L 574.78125 691.078125 C 575.011719 676.777344 562.324219 663.863281 547.792969 664.09375 Z M 376.652344 712.761719 L 408.714844 712.761719 L 408.714844 686.695312 L 376.652344 686.695312 Z M 638.898438 690.386719 L 638.898438 716.449219 L 670.960938 716.449219 L 670.960938 690.386719 Z M 574.085938 656.25 C 597.84375 618.425781 626.675781 572.757812 650.433594 534.46875 C 622.523438 551.074219 589.773438 570.449219 561.863281 587.289062 C 575.703125 605.277344 574.085938 632.496094 558.402344 648.871094 C 564.167969 650.253906 569.242188 652.792969 574.085938 656.25 Z M 329.371094 208.332031 L 329.371094 251.464844 C 329.371094 255.847656 325.910156 259.304688 321.527344 259.304688 L 278.398438 259.304688 C 274.015625 259.304688 270.554688 255.847656 270.554688 251.464844 L 270.554688 208.332031 C 270.554688 203.949219 274.015625 200.492188 278.398438 200.492188 L 321.527344 200.492188 C 325.910156 200.492188 329.371094 203.949219 329.371094 208.332031 Z M 312.992188 213.175781 C 309.765625 216.175781 299.15625 226.554688 296.15625 229.550781 C 294.542969 228.167969 290.390625 224.707031 289.699219 224.015625 C 281.394531 217.328125 271.015625 229.78125 279.089844 236.703125 C 280.933594 238.316406 289.929688 246.160156 291.3125 247.3125 C 294.542969 249.847656 299.15625 249.386719 302.152344 246.621094 L 324.296875 224.9375 C 331.90625 217.328125 320.605469 205.566406 312.761719 213.175781 Z M 329.371094 350.875 L 329.371094 394.003906 C 329.371094 398.386719 325.910156 401.847656 321.527344 401.847656 L 278.398438 401.847656 C 274.015625 401.847656 270.554688 398.386719 270.554688 394.003906 L 270.554688 350.875 C 270.554688 346.492188 274.015625 343.03125 278.398438 343.03125 L 321.527344 343.03125 C 325.910156 343.03125 329.371094 346.492188 329.371094 350.875 Z M 312.992188 355.714844 C 309.765625 358.714844 299.15625 369.09375 296.15625 372.09375 C 294.3125 370.476562 292.003906 368.402344 290.160156 366.789062 C 279.78125 359.175781 270.09375 374.167969 282.085938 381.550781 C 284.164062 383.394531 289.238281 387.777344 291.3125 389.390625 C 294.542969 392.160156 299.386719 392.160156 302.382812 389.160156 L 324.527344 367.480469 C 332.136719 359.867188 320.835938 348.105469 312.992188 355.714844 Z M 491.976562 611.734375 C 489.210938 630.417969 504.203125 647.71875 523.34375 647.71875 C 552.40625 648.179688 566.246094 609.890625 543.640625 591.902344 C 525.652344 575.984375 494.746094 587.980469 492.207031 611.734375 Z M 312.992188 498.027344 L 300.769531 510.019531 L 293.851562 512.328125 L 290.160156 509.097656 C 282.316406 502.179688 271.476562 513.710938 278.859375 521.089844 C 278.859375 521.089844 284.625 526.164062 284.625 526.164062 C 284.625 526.164062 291.542969 531.933594 291.542969 532.164062 C 294.773438 534.699219 299.386719 534.238281 302.382812 531.46875 L 324.527344 509.789062 C 332.136719 502.179688 320.835938 490.414062 312.992188 498.027344 Z M 312.992188 498.027344 " fill-opacity="1" fill-rule="nonzero"/></g></svg>