<svg xmlns="http://www.w3.org/2000/svg" xmlns:xlink="http://www.w3.org/1999/xlink" width="1024" zoomAndPan="magnify" viewBox="0 0 768 767.999994" height="1024" preserveAspectRatio="xMidYMid meet" version="1.0"><defs><clipPath id="1ccbd25c0a"><path d="M 76.800781 332 L 462 332 L 462 599 L 76.800781 599 Z M 76.800781 332 " clip-rule="nonzero"/></clipPath><clipPath id="5efba49168"><path d="M 163 50.992188 L 435 50.992188 L 435 322 L 163 322 Z M 163 50.992188 " clip-rule="nonzero"/></clipPath><clipPath id="ae602d2931"><path d="M 311 356 L 687 356 L 687 731.242188 L 311 731.242188 Z M 311 356 " clip-rule="nonzero"/></clipPath></defs><g clip-path="url(#1ccbd25c0a)"><path fill="#10213e" d="M 438.859375 475.011719 C 435.3125 441.335938 443.816406 408.730469 461.894531 381.09375 C 443.460938 360.898438 421.136719 343.871094 395.972656 332.1875 C 368.332031 350.621094 334.660156 361.589844 298.507812 361.589844 C 262.710938 361.589844 229.042969 350.621094 201.398438 332.1875 C 127.679688 367.976562 76.996094 443.828125 76.996094 531.359375 L 76.996094 560.429688 C 76.996094 581.683594 94.011719 598.710938 114.917969 598.710938 L 315.167969 598.710938 Z M 438.859375 475.011719 " fill-opacity="1" fill-rule="nonzero"/></g><g clip-path="url(#5efba49168)"><path fill="#10213e" d="M 298.699219 321.890625 C 373.527344 321.890625 434.152344 261.269531 434.152344 186.441406 C 434.152344 111.613281 373.527344 50.992188 298.699219 50.992188 C 223.890625 50.992188 163.234375 111.613281 163.234375 186.441406 C 163.234375 261.269531 223.890625 321.890625 298.699219 321.890625 Z M 298.699219 321.890625 " fill-opacity="1" fill-rule="nonzero"/></g><g clip-path="url(#ae602d2931)"><path fill="#10213e" d="M 629.039062 367.40625 C 600.335938 352.230469 564.671875 352.210938 535.917969 367.285156 C 487.375 392.742188 470.335938 444.171875 482.964844 488.804688 L 314.726562 657.046875 C 313.851562 659.140625 313.074219 661.011719 312.183594 663.121094 L 311.738281 722.652344 C 311.957031 727.273438 315.707031 731.027344 320.332031 731.253906 L 375.277344 731.011719 C 379.898438 730.992188 383.621094 727.257812 383.617188 722.652344 L 383.609375 688.09375 C 383.609375 686.242188 385.128906 684.738281 386.976562 684.738281 L 420.777344 684.945312 C 425.414062 684.980469 429.238281 681.207031 429.253906 676.566406 L 429.453125 642.164062 C 429.472656 640.332031 430.933594 638.859375 432.757812 638.84375 C 439.921875 638.789062 457.136719 638.652344 467.421875 638.324219 C 471.972656 638.183594 475.554688 634.464844 475.554688 629.914062 L 475.546875 596.132812 C 475.554688 594.28125 477.050781 592.792969 478.902344 592.792969 L 516.144531 592.792969 C 519.527344 592.792969 522.738281 591.460938 525.136719 589.054688 L 554.179688 560.015625 C 589.441406 570.175781 628.464844 561.574219 656.03125 534.003906 C 704.167969 485.863281 695.191406 402.292969 629.039062 367.40625 Z M 628.464844 455.75 C 617.011719 467.207031 598.707031 467 587.460938 455.75 C 575.996094 444.292969 575.78125 425.984375 587.234375 414.527344 C 598.710938 403.054688 617.011719 403.261719 628.476562 414.734375 C 639.71875 425.984375 639.9375 444.277344 628.464844 455.75 Z M 628.464844 455.75 " fill-opacity="1" fill-rule="nonzero"/></g></svg>